<?xml version="1.0" standalone="no"?><!DOCTYPE svg PUBLIC "-//W3C//DTD SVG 1.1//EN" "http://www.w3.org/Graphics/SVG/1.1/DTD/svg11.dtd"><svg t="1535366290422" class="icon" style="" viewBox="0 0 1024 1024" version="1.1" xmlns="http://www.w3.org/2000/svg" p-id="12901" xmlns:xlink="http://www.w3.org/1999/xlink" width="400" height="400"><defs><style type="text/css"></style></defs><path d="M1021.942 523.141v254.935h-58.181c-8.884-23.739-19.151-43.545-31.385-59.42-44.637-58.764-121.824-74.493-189.617-88.765-27.088-5.534-52.793-10.923-73.109-18.35-8.738-3.131-14.854-6.262-19.078-8.519 21.408-23.447 39.831-52.138 53.302-84.542 16.894-39.685 25.705-82.866 25.705-124.956 0-64.298-4.078-137.917-33.497-196.972-13.035-25.777-33.714-54.613-66.556-75.366 15.655-56.507 51.483-94.081 127.504-94.081 119.494 0 137.844 96.702 137.844 213.283 0 61.094-27.234 123.717-67.502 159.325-4.005 3.641-6.262 8.811-6.262 14.053-0.146 14.491 0.291 33.497 5.825 40.633 33.788 45.074 125.611 46.458 195.006 68.74M89.147 720.477c43.472-61.968 122.916-77.77 192.894-91.969 27.453-5.389 53.157-10.777 73.619-17.914 8.447-2.986 14.418-5.68 18.569-8.083-21.408-23.447-39.175-51.846-52.939-83.667-16.675-39.468-25.777-81.847-26.361-123.062-0.655-54.541 2.767-96.047 9.83-131.291 10.34-50.682 29.273-89.275 58.036-118.329 9.539-9.903 20.243-18.205 31.603-25.341-16.020-56.798-51.118-94.372-125.611-94.372-123.135 0-140.465 97.794-139.3 215.249 0.655 59.856 27.817 122.188 67.648 157.65 4.078 3.568 6.335 8.811 6.335 14.346 0 14.491-0.946 33.35-6.044 40.050-32.987 45.002-125.538 46.021-195.37 67.574v256.464h58.327c8.156-22.719 17.84-41.506 28.763-57.308M933.687 974.757c0.582 12.379-9.321 22.719-21.554 22.719h-799.393c-12.379 0-22.137-10.413-21.482-22.719 2.839-48.933 13.18-163.549 50.098-216.341 56.069-79.808 241.172-52.356 293.019-123.717 5.899-7.792 6.845-28.836 6.845-45.074 0-6.116-2.548-11.942-7.063-16.165-44.492-39.759-74.493-109.373-75.148-176.729-1.311-131.801 17.914-241.245 154.519-241.245 132.455 0 152.626 108.281 152.626 239.353 0 68.594-30.146 138.645-74.638 178.622-4.297 3.932-7.063 9.977-7.136 15.655-0.364 16.165 0.655 37.647 6.262 45.657 52.501 71.361 232.070 45.803 291.563 123.717 38.812 51.628 48.861 167.263 51.483 216.269z" p-id="12902"></path></svg>