<?xml version="1.0" standalone="no"?><!DOCTYPE svg PUBLIC "-//W3C//DTD SVG 1.1//EN" "http://www.w3.org/Graphics/SVG/1.1/DTD/svg11.dtd"><svg t="1540886312707" class="icon" style="" viewBox="0 0 1024 1024" version="1.1" xmlns="http://www.w3.org/2000/svg" p-id="9093" xmlns:xlink="http://www.w3.org/1999/xlink" width="500" height="500"><defs><style type="text/css"></style></defs><path d="M531.2 531.2c-25.6 6.4-44.8 12.8-64 19.2-12.8 6.4-25.6 19.2-32 32-6.4 12.8-12.8 32-12.8 51.2 0 25.6 6.4 51.2 25.6 70.4 19.2 19.2 38.4 25.6 70.4 25.6 19.2 0 32-6.4 51.2-12.8 12.8-6.4 32-19.2 44.8-32v12.8c0 12.8 6.4 19.2 6.4 25.6h76.8c-6.4-12.8-12.8-32-12.8-44.8 0-12.8-6.4-32-6.4-64V512c0-38.4-6.4-64-12.8-76.8-6.4-12.8-19.2-25.6-38.4-32-6.4-12.8-38.4-19.2-70.4-19.2-38.4 0-64 6.4-83.2 25.6-19.2 12.8-38.4 38.4-44.8 70.4l70.4 12.8c6.4-12.8 12.8-25.6 19.2-32 6.4-6.4 19.2-6.4 32-6.4 19.2 0 32 6.4 44.8 12.8 6.4 6.4 12.8 19.2 12.8 38.4V512c-19.2 0-44.8 6.4-76.8 19.2z m70.4 51.2v44.8c0 12.8-6.4 19.2-19.2 25.6-12.8 12.8-25.6 12.8-38.4 12.8-12.8 0-25.6-6.4-32-12.8-6.4-6.4-12.8-19.2-12.8-32s6.4-19.2 12.8-32c6.4 0 25.6-6.4 44.8-12.8 19.2-6.4 38.4-6.4 44.8-12.8v19.2zM755.2 268.8H832v448h-76.8zM915.2 268.8h76.8v448h-76.8z" p-id="9094"></path><path d="M691.2 755.2c-51.2 0-89.6 38.4-89.6 89.6 0 12.8 0 19.2 6.4 32-44.8 12.8-89.6 19.2-140.8 19.2-211.2 0-384-172.8-384-384s172.8-384 384-384c89.6 0 166.4 25.6 236.8 76.8 12.8 6.4 25.6 6.4 32-6.4 6.4-12.8 6.4-25.6-6.4-32-76.8-57.6-172.8-89.6-268.8-89.6C224 76.8 25.6 268.8 25.6 512s192 435.2 435.2 435.2c57.6 0 115.2-12.8 172.8-32 12.8 12.8 32 19.2 57.6 19.2 51.2 0 89.6-38.4 89.6-89.6 0-51.2-38.4-89.6-89.6-89.6z" p-id="9095"></path></svg>