<?xml version="1.0" standalone="no"?><!DOCTYPE svg PUBLIC "-//W3C//DTD SVG 1.1//EN" "http://www.w3.org/Graphics/SVG/1.1/DTD/svg11.dtd"><svg t="1538981271884" class="icon" style="" viewBox="0 0 1024 1024" version="1.1" xmlns="http://www.w3.org/2000/svg" p-id="1460" xmlns:xlink="http://www.w3.org/1999/xlink" width="400" height="400"><defs><style type="text/css"></style></defs><path d="M789.333333 277.333333c-8.533333 0-14.933333 2.133333-21.333333 4.266667L768 277.333333l-2.133333 0c-8.533333-66.133333-53.333333-123.733333-115.2-157.866667l29.866667-42.666667 0 0C680.533333 72.533333 682.666667 68.266667 682.666667 64c0-12.8-8.533333-21.333333-21.333333-21.333333-6.4 0-12.8 4.266667-17.066667 10.666667l0 0-34.133333 49.066667C580.266667 91.733333 546.133333 85.333333 512 85.333333s-68.266667 6.4-98.133333 17.066667l-34.133333-49.066667 0 0C375.466667 46.933333 369.066667 42.666667 362.666667 42.666667c-12.8 0-21.333333 8.533333-21.333333 21.333333 0 4.266667 2.133333 8.533333 4.266667 10.666667l0 0 29.866667 42.666667c-64 34.133333-108.8 91.733333-115.2 157.866667L256 275.2l0 4.266667c-6.4-2.133333-12.8-4.266667-21.333333-4.266667-36.266667 0-64 27.733333-64 64l0 298.666667c0 36.266667 27.733333 64 64 64 8.533333 0 14.933333-2.133333 21.333333-4.266667L256 768c0 23.466667 19.2 42.666667 42.666667 42.666667l42.666667 0 0 106.666667c0 36.266667 27.733333 64 64 64s64-27.733333 64-64l0-106.666667 85.333333 0 0 106.666667c0 36.266667 27.733333 64 64 64s64-27.733333 64-64l0-106.666667 42.666667 0c23.466667 0 42.666667-19.2 42.666667-42.666667l0-68.266667c6.4 2.133333 12.8 4.266667 21.333333 4.266667 36.266667 0 64-27.733333 64-64L853.333333 341.333333C853.333333 305.066667 825.6 277.333333 789.333333 277.333333zM256 640c0 12.8-8.533333 21.333333-21.333333 21.333333s-21.333333-8.533333-21.333333-21.333333L213.333333 341.333333c0-12.8 8.533333-21.333333 21.333333-21.333333s21.333333 8.533333 21.333333 21.333333L256 640zM512 128c108.8 0 198.4 66.133333 211.2 149.333333L300.8 277.333333C313.6 194.133333 403.2 128 512 128zM426.666667 917.333333c0 12.8-8.533333 21.333333-21.333333 21.333333s-21.333333-8.533333-21.333333-21.333333l0-106.666667 42.666667 0L426.666667 917.333333zM640 917.333333c0 12.8-8.533333 21.333333-21.333333 21.333333s-21.333333-8.533333-21.333333-21.333333l0-106.666667 42.666667 0L640 917.333333zM725.333333 768 298.666667 768 298.666667 320l426.666667 0L725.333333 768zM810.666667 640c0 12.8-8.533333 21.333333-21.333333 21.333333s-21.333333-8.533333-21.333333-21.333333L768 341.333333c0-12.8 8.533333-21.333333 21.333333-21.333333s21.333333 8.533333 21.333333 21.333333L810.666667 640zM576 192c-12.8 0-21.333333 8.533333-21.333333 21.333333 0 12.8 8.533333 21.333333 21.333333 21.333333s21.333333-8.533333 21.333333-21.333333C597.333333 200.533333 588.8 192 576 192zM448 192c-12.8 0-21.333333 8.533333-21.333333 21.333333 0 12.8 8.533333 21.333333 21.333333 21.333333s21.333333-8.533333 21.333333-21.333333C469.333333 200.533333 460.8 192 448 192z" p-id="1461"></path></svg>