<?xml version="1.0" standalone="no"?><!DOCTYPE svg PUBLIC "-//W3C//DTD SVG 1.1//EN" "http://www.w3.org/Graphics/SVG/1.1/DTD/svg11.dtd"><svg t="1538016850353" class="icon" style="" viewBox="0 0 1024 1024" version="1.1" xmlns="http://www.w3.org/2000/svg" p-id="5231" xmlns:xlink="http://www.w3.org/1999/xlink" width="400" height="400"><defs><style type="text/css"></style></defs><path d="M512 302.037c-83.338 0-161.688 32.454-220.617 91.383C232.454 452.348 200 530.698 200 614.036c0 17.673 14.327 32 32 32s32-14.327 32-32c0-66.243 25.796-128.521 72.638-175.362 46.841-46.841 109.119-72.638 175.362-72.638s128.521 25.796 175.362 72.638C734.203 485.515 760 547.793 760 614.036c0 17.673 14.327 32 32 32s32-14.327 32-32c0-83.338-32.454-161.688-91.383-220.617C673.688 334.49 595.338 302.037 512 302.037z" fill="" p-id="5232"></path><path d="M512 158C264.576 158 64 358.576 64 606c0 89.999 26.545 173.796 72.224 244h751.553C933.455 779.796 960 695.999 960 606c0-247.424-200.576-448-448-448z m339.288 628H172.712C143.373 730.813 128 669.228 128 606c0-51.868 10.144-102.15 30.15-149.451 19.337-45.719 47.034-86.792 82.321-122.078 35.286-35.287 76.359-62.983 122.078-82.321C409.85 232.144 460.132 222 512 222c51.868 0 102.15 10.144 149.451 30.15 45.719 19.337 86.792 47.034 122.078 82.321 35.287 35.286 62.983 76.359 82.321 122.078C885.856 503.85 896 554.132 896 606c0 63.228-15.373 124.813-44.712 180z" fill="" p-id="5233"></path><path d="M532.241 586.466a79.753 79.753 0 0 0-29.217 5.529l-69.087-69.087c-12.497-12.499-32.758-12.497-45.255-0.001-12.497 12.497-12.497 32.759 0 45.255l69.088 69.088a79.753 79.753 0 0 0-5.529 29.217c0 44.183 35.817 80 80 80s80-35.817 80-80-35.818-80.001-80-80.001z" fill="" p-id="5234"></path></svg>