<?xml version="1.0" standalone="no"?><!DOCTYPE svg PUBLIC "-//W3C//DTD SVG 1.1//EN" "http://www.w3.org/Graphics/SVG/1.1/DTD/svg11.dtd"><svg t="1535365421493" class="icon" style="" viewBox="0 0 1024 1024" version="1.1" xmlns="http://www.w3.org/2000/svg" p-id="9855" xmlns:xlink="http://www.w3.org/1999/xlink" width="400" height="400"><defs><style type="text/css"></style></defs><path d="M219.424 658.272q0-30.272-21.44-51.712t-51.712-21.44-51.712 21.44-21.44 51.712 21.44 51.712 51.712 21.44 51.712-21.44 21.44-51.712zM329.152 402.272q0-30.272-21.44-51.712t-51.712-21.44-51.712 21.44-21.44 51.712 21.44 51.712 51.712 21.44 51.712-21.44 21.44-51.712zM573.728 677.152l57.728-218.272q3.424-14.848-4.288-27.712t-22.016-16.864-27.424 3.712-17.152 22.56l-57.728 218.272q-34.272 2.848-61.152 24.864t-36 56.288q-11.424 44 11.424 83.424t66.848 50.848 83.424-11.424 50.848-66.848q9.152-34.272-3.424-66.848t-41.152-52zM950.848 658.272q0-30.272-21.44-51.712t-51.712-21.44-51.712 21.44-21.44 51.712 21.44 51.712 51.712 21.44 51.712-21.44 21.44-51.712zM585.152 292.576q0-30.272-21.44-51.712t-51.712-21.44-51.712 21.44-21.44 51.712 21.44 51.712 51.712 21.44 51.712-21.44 21.44-51.712zM841.152 402.272q0-30.272-21.44-51.712t-51.712-21.44-51.712 21.44-21.44 51.712 21.44 51.712 51.712 21.44 51.712-21.44 21.44-51.712zM1024 658.272q0 149.152-80.576 276-10.848 16.576-30.848 16.576l-801.152 0q-20 0-30.848-16.576-80.576-126.272-80.576-276 0-104 40.576-198.848t109.152-163.424 163.424-109.152 198.848-40.576 198.848 40.576 163.424 109.152 109.152 163.424 40.576 198.848z" p-id="9856"></path></svg>