<?xml version="1.0" standalone="no"?><!DOCTYPE svg PUBLIC "-//W3C//DTD SVG 1.1//EN" "http://www.w3.org/Graphics/SVG/1.1/DTD/svg11.dtd"><svg t="1541408426700" class="icon" style="" viewBox="0 0 1024 1024" version="1.1" xmlns="http://www.w3.org/2000/svg" p-id="3919" xmlns:xlink="http://www.w3.org/1999/xlink" width="300" height="300"><defs><style type="text/css"></style></defs><path d="M944 748.64h-112v-288A320.8 320.8 0 0 0 560 144V108.64a48 48 0 1 0-96 0V144a320.8 320.8 0 0 0-272 316.64v288H80a16 16 0 0 0-16 16v64a16 16 0 0 0 16 16h864a16 16 0 0 0 16-16v-64a16 16 0 0 0-16-16zM592 908.64H432a16 16 0 0 0-16 16 80 80 0 0 0 80 80h32a80 80 0 0 0 80-80 16 16 0 0 0-16-16zM120.32 204.64h41.44a16 16 0 0 0 11.84-5.6 449.76 449.76 0 0 1 152.96-114.24 16 16 0 0 0 9.44-14.4V35.36a16 16 0 0 0-22.56-14.56 512 512 0 0 0-205.76 157.76 16 16 0 0 0 12.64 26.08zM697.44 84.8a449.76 449.76 0 0 1 152.96 114.24 16 16 0 0 0 11.84 5.6h41.44a16 16 0 0 0 12.64-26.08A512 512 0 0 0 710.56 20.8a16 16 0 0 0-22.56 14.56V70.4a16 16 0 0 0 9.44 14.4z" fill="" p-id="3920"></path></svg>