<?xml version="1.0" standalone="no"?><!DOCTYPE svg PUBLIC "-//W3C//DTD SVG 1.1//EN" "http://www.w3.org/Graphics/SVG/1.1/DTD/svg11.dtd"><svg t="1537516862973" class="icon" style="" viewBox="0 0 1024 1024" version="1.1" xmlns="http://www.w3.org/2000/svg" p-id="3719" xmlns:xlink="http://www.w3.org/1999/xlink" width="400" height="400"><defs><style type="text/css"></style></defs><path d="M320 864 320 0l480 0 0 192 0 32L1024 224l0 640L320 864zM928 320l-512 0 0 32 512 0L928 320zM928 448l-512 0 0 32 512 0L928 448zM928 576l-512 0 0 32 512 0L928 576zM928 704l-512 0 0 32 512 0L928 704zM832 0l19.2 0L1024 160 1024 192l-192 0L832 0zM288 896l320 0L704 896l0 128L0 1024 0 160l288 0 0 320-192 0L96 512l192 0 0 96-192 0L96 640l192 0 0 96-192 0L96 768l192 0 0 96-192 0L96 896 288 896z" p-id="3720"></path></svg>