<?xml version="1.0" standalone="no"?><!DOCTYPE svg PUBLIC "-//W3C//DTD SVG 1.1//EN" "http://www.w3.org/Graphics/SVG/1.1/DTD/svg11.dtd"><svg t="1539596029113" class="icon" style="" viewBox="0 0 1024 1024" version="1.1" xmlns="http://www.w3.org/2000/svg" p-id="11876" xmlns:xlink="http://www.w3.org/1999/xlink" width="500" height="500"><defs><style type="text/css"></style></defs><path d="M19.2 428.8C25.6 428.8 25.6 428.8 19.2 428.8c19.2 0 25.6-6.4 32-19.2C102.4 198.4 294.4 51.2 512 51.2c140.8 0 275.2 64 364.8 172.8l-89.6 44.8L960 384c12.8 12.8 38.4 0 38.4-19.2l12.8-204.8-89.6 44.8C825.6 76.8 672 0 512 0 268.8 0 57.6 166.4 0 396.8 0 416 6.4 428.8 19.2 428.8z" p-id="11877" fill="#515151"></path><path d="M1004.8 595.2c-12.8-6.4-25.6 6.4-32 19.2-51.2 211.2-243.2 364.8-460.8 364.8-140.8 0-275.2-64-364.8-172.8l89.6-44.8L64 640c-12.8-12.8-38.4 0-38.4 19.2l-12.8 204.8 89.6-44.8C198.4 947.2 352 1024 512 1024c243.2 0 454.4-166.4 512-396.8C1024 608 1017.6 595.2 1004.8 595.2z" p-id="11878" fill="#515151"></path></svg>