<?xml version="1.0" standalone="no"?><!DOCTYPE svg PUBLIC "-//W3C//DTD SVG 1.1//EN" "http://www.w3.org/Graphics/SVG/1.1/DTD/svg11.dtd"><svg t="1539596872536" class="icon" style="" viewBox="0 0 1024 1024" version="1.1" xmlns="http://www.w3.org/2000/svg" p-id="13294" xmlns:xlink="http://www.w3.org/1999/xlink" width="500" height="500"><defs><style type="text/css"></style></defs><path d="M992 1002.66666667H32c-19.2 0-32-12.8-32-32s12.8-32 32-32h960c19.2 0 32 12.8 32 32s-12.8 32-32 32zM121.6 455.46666667c-6.4 0-9.6 0-12.8-3.2-12.8-3.2-22.4-12.8-28.8-22.4L3.2 276.26666667C-3.2 260.26666667 3.2 241.06666667 19.2 234.66666667c16-6.4 35.2 0 41.6 16L128 385.06666667l137.6-70.4c16-9.6 35.2-3.2 44.8 12.8 9.6 16 3.2 35.2-12.8 44.8l-153.6 80c-6.4 3.2-16 3.2-22.4 3.2z" fill="#515151" p-id="13295"></path><path d="M512 842.66666667c-102.4 0-201.6-38.4-278.4-108.8-12.8-12.8-12.8-32-3.2-44.8 12.8-12.8 32-12.8 44.8-3.2 64 57.6 150.4 92.8 236.8 92.8 195.2 0 352-156.8 352-352S707.2 74.66666667 512 74.66666667c-172.8 0-316.8 121.6-345.6 291.2-3.2 19.2-19.2 28.8-38.4 25.6-16-3.2-28.8-19.2-25.6-38.4C137.6 154.66666667 310.4 10.66666667 512 10.66666667c230.4 0 416 185.6 416 416s-185.6 416-416 416z" fill="#515151" p-id="13296"></path></svg>