<?xml version="1.0" standalone="no"?><!DOCTYPE svg PUBLIC "-//W3C//DTD SVG 1.1//EN" "http://www.w3.org/Graphics/SVG/1.1/DTD/svg11.dtd"><svg t="1535365963561" class="icon" style="" viewBox="0 0 1026 1024" version="1.1" xmlns="http://www.w3.org/2000/svg" p-id="10971" xmlns:xlink="http://www.w3.org/1999/xlink" width="400.78125" height="400"><defs><style type="text/css"></style></defs><path d="M972.8 215.04c-71.68-81.92-148.48-122.88-230.4-122.88 0 0-2.56 0-2.56 0-107.52 0-192 71.68-225.28 104.96-33.28-33.28-117.76-104.96-225.28-104.96 0 0-2.56 0-2.56 0-81.92 0-161.28 40.96-230.4 122.88-43.52 48.64-58.88 104.96-48.64 168.96 35.84 250.88 473.6 529.92 491.52 542.72 5.12 2.56 7.68 5.12 12.8 5.12l7.68 0c5.12 0 10.24-2.56 12.8-5.12 17.92-12.8 455.68-289.28 491.52-542.72C1031.68 322.56 1013.76 263.68 972.8 215.04zM512 875.52c-38.4-25.6-168.96-115.2-281.6-225.28l79.36 0c10.24 0 20.48-5.12 23.04-15.36l87.04-202.24 115.2 291.84c5.12 10.24 12.8 15.36 23.04 15.36 0 0 0 0 0 0 10.24 0 20.48-7.68 23.04-17.92l51.2-148.48 38.4 69.12c5.12 7.68 12.8 12.8 23.04 12.8l92.16 0C675.84 765.44 547.84 852.48 512 875.52zM970.24 378.88c-10.24 74.24-64 153.6-133.12 227.84l-128 0-58.88-107.52c-5.12-7.68-15.36-12.8-25.6-12.8-10.24 0-17.92 7.68-23.04 17.92l-48.64 138.24L445.44 358.4c-5.12-10.24-12.8-15.36-23.04-15.36-10.24 0-20.48 5.12-23.04 15.36l-104.96 243.2L181.76 601.6c-66.56-71.68-117.76-151.04-128-222.72-7.68-48.64 5.12-92.16 38.4-128C151.04 179.2 217.6 143.36 284.16 143.36c0 0 0 0 2.56 0 115.2 0 202.24 102.4 204.8 104.96 5.12 5.12 12.8 10.24 20.48 10.24l7.68 0c7.68 0 15.36-2.56 20.48-10.24 0 0 87.04-102.4 204.8-104.96 0 0 0 0 2.56 0 66.56 0 133.12 35.84 192 104.96C965.12 286.72 977.92 327.68 970.24 378.88z" p-id="10972"></path></svg>