<?xml version="1.0" standalone="no"?><!DOCTYPE svg PUBLIC "-//W3C//DTD SVG 1.1//EN" "http://www.w3.org/Graphics/SVG/1.1/DTD/svg11.dtd"><svg t="1535365140993" class="icon" style="" viewBox="0 0 1024 1024" version="1.1" xmlns="http://www.w3.org/2000/svg" p-id="9238" xmlns:xlink="http://www.w3.org/1999/xlink" width="400" height="400"><defs><style type="text/css"></style></defs><path d="M953.6 684.8V96c0-6.4 0-12.8-6.4-19.2l-12.8-12.8H332.8h-6.4H320c0 6.4-6.4 6.4-12.8 12.8L76.8 313.6s0 6.4-6.4 6.4v608c0 6.4 0 12.8 6.4 19.2l12.8 12.8H691.2c6.4 0 19.2-6.4 25.6-12.8l230.4-243.2s0-6.4 6.4-6.4v-12.8c0 12.8 0 6.4 0 0z m-652.8-12.8l-166.4 172.8V371.2h166.4v300.8z m44.8 44.8h313.6V896H179.2l166.4-179.2z m19.2-64V371.2h294.4v288H364.8v-6.4z m313.6-345.6H364.8V128h486.4l-172.8 179.2z m44.8 44.8l166.4-172.8v480h-166.4V352z m-422.4-44.8H179.2l121.6-128v128z m422.4 409.6h121.6l-121.6 128v-128z" fill="" p-id="9239"></path></svg>