<?xml version="1.0" standalone="no"?><!DOCTYPE svg PUBLIC "-//W3C//DTD SVG 1.1//EN" "http://www.w3.org/Graphics/SVG/1.1/DTD/svg11.dtd"><svg t="1540868902206" class="icon" style="" viewBox="0 0 1024 1024" version="1.1" xmlns="http://www.w3.org/2000/svg" p-id="4901" xmlns:xlink="http://www.w3.org/1999/xlink" width="500" height="500"><defs><style type="text/css"></style></defs><path d="M456.204646 247.179999c-0.399967-2.799767 3.799684-4.599617 6.399467-5.799517 3.399717-1.399883 7.799351-1.999833 10.999084-0.199983 0.799933 0.399967 1.599867 1.399883 1.1999 2.199817-0.799933 2.3998-4.7996 1.999833-6.999417 3.199733-1.999833 0.999917-3.5997 3.399717-5.999501 3.399717-1.999833 0.199983-5.39955-0.799933-5.599533-2.799767z m49.395887-0.59995c1.999833 0.999917 3.5997 3.399717 5.9995 3.399717 2.199817 0 5.599534-0.799933 5.799517-2.99975 0.399967-2.799767-3.799684-4.599617-6.399467-5.799517-3.399717-1.399883-7.799351-1.999833-10.999084-0.199983-0.799933 0.399967-1.599867 1.399883-1.1999 2.199816 0.59995 2.599784 4.599617 2.199817 6.799434 3.399717z m429.36425 620.348349c-0.999917 16.398635-12.998918 27.597702-27.797685 36.596953-29.797519 17.998501-74.593789 31.597369-101.791525 64.394638l-5.199567-4.399633 5.199567 4.399633c-28.397636 33.797186-63.394722 53.195571-96.591958 55.795355-32.997253 2.599784-63.994672-12.598951-80.593289-45.996171v-0.199983c-2.199817-4.19965-3.799684-8.799267-4.999584-13.398884-42.99642 2.3998-80.393306-10.599117-110.190825-8.199318-43.996337 2.3998-71.594039 12.998918-96.591958 13.198901-9.599201 21.198235-28.597619 35.197069-51.795687 40.396637-31.997336 7.399384-72.193989 0-111.790692-20.798268l3.199733-5.999501-3.199733 5.999501c-36.99692-19.598368-83.993007-17.798518-118.590126-24.997919-17.398551-3.5997-32.597286-9.999167-40.196653-24.597952-7.399384-14.598784-5.9995-34.597119 4.399633-63.394722 3.399717-10.199151 0.799933-25.397885-1.599867-41.596536-1.1999-7.799351-2.3998-15.798685-2.3998-23.598035 0-8.599284 1.399883-16.998585 5.599534-24.797936 8.999251-16.998585 23.598035-24.197985 36.99692-28.997585 13.398884-4.7996 25.597869-7.999334 33.997169-16.598618 10.399134-10.999084 20.198318-28.797602 33.197236-40.396637-5.199567-34.397136 0.399967-70.794106 12.398967-106.591125 25.197902-75.793689 78.393473-148.387645 116.190326-193.383898 32.197319-45.796187 41.596537-82.593123 44.996254-129.389227C380.01099 206.783363 328.815252-0.399387 533.598202 0.00058c161.786529 0.199983 152.587295 170.78578 151.587378 262.578137-0.59995 60.194988 32.597286 100.991591 66.794439 143.988012 30.397469 35.997003 70.194156 88.592624 92.992257 148.787611 18.598451 49.195904 25.797852 103.591375 7.399384 158.186829 2.799767 0.999917 5.599534 2.3998 8.199317 3.999667 2.799767 1.599867 5.39955 3.5997 7.999334 5.799517 13.198901 11.199068 17.398551 28.597619 20.998252 44.796271 3.799684 16.198651 7.199401 31.397386 14.398801 39.396719 22.198152 24.797935 31.797352 42.99642 30.997419 59.395055zM505.600533 218.182414c7.199401 1.79985 17.798518 4.7996 25.997835 8.799267-4.19965-24.397969 8.999251-46.996087 23.598035-45.99617 17.798518 0.59995 27.797686 30.997419 18.198485 54.595454-1.599867 3.799684-5.599534 6.799434-7.79935 9.199234 13.398884 4.599617 21.998168 8.199317 25.197902 9.799184 15.798685-18.998418 21.598202-52.395637 8.599284-80.793273-19.598368-42.796437-68.394305-43.59637-87.992674 0.799934-6.399467 14.398801-7.799351 29.797519-5.799517 43.59637z m-92.392307 37.596869c15.598701-11.399051 13.798851-9.399217 11.799017-10.999084-15.998668-13.798851-13.198901-54.795438 3.5997-56.195321 12.598951-0.999917 21.598202 21.398218 19.198402 39.196737 6.199484-4.19965 13.398884-7.199401 20.398302-9.199235 3.399717-38.596786-17.998501-66.994422-38.19682-66.994421-37.796853 0-47.996004 74.993756-16.798601 104.191324z m-18.798435 41.79652c2.99975 9.799184 12.198984 20.998252 29.397552 30.597453 15.598701 9.199234 23.998002 22.998085 39.99667 29.997502 5.199567 2.199817 11.399051 3.799684 19.198401 4.19965 36.796936 2.199817 54.195488-22.598118 76.39364-29.797519 23.398052-7.399384 40.196653-21.998168 45.39622-36.196986 6.399467-16.998585-4.19965-29.397552-20.998252-36.396969-22.598118-9.799184-32.597286-10.399134-45.196237-18.598452-20.598285-13.198901-37.59687-17.798518-51.795687-17.798518-28.797602 0-46.396137 19.598368-55.795354 28.397636-0.999917 0.999917-15.798685 11.799018-28.197653 20.998251-8.399301 6.599451-11.199068 14.798768-8.3993 24.597952z m-66.994422 505.557907L288.218632 731.939637c-13.598868-18.398468-27.597702-29.597536-43.796353-31.997335-15.398718-2.3998-25.197902 2.799767-35.397053 13.798851-9.599201 10.199151-17.598535 24.597952-28.597619 35.997003-15.598701 12.998918-18.598451 12.398968-39.196736 19.798351-12.598951 4.399634-22.598118 9.199234-29.597536 22.598119-5.39955 9.999167-4.19965 24.397969-1.79985 39.996669 2.3998 15.798685 5.9995 32.597286 1.1999 47.796021v0.399966c-9.999167 27.397719-9.999167 43.396387-5.199567 52.795605 15.798685 30.797436 93.192241 12.198984 152.987262 43.796353 62.794772 32.797269 145.187911 34.197153 150.587462-35.997003 4.19965-40.996587-62.994755-97.991841-81.993173-137.788527z m307.774374 71.594039c6.399467-21.998168 12.598951-42.596453 13.598868-57.995172 1.599867-30.397469 3.199734-57.395221 8.799267-79.793356 6.199484-25.197902 18.598451-46.196154 42.796437-54.595454 4.599617-42.196487 37.396886-42.196487 76.593622-24.997919 37.796853 16.998585 51.995671 31.997336 45.596204 52.195654 1.999833 0 3.999667-0.199983 8.399301 0 10.399134-33.797186-28.597619-55.995338-61.394888-69.594205 5.799517-23.998002 4.7996-48.195987-0.799934-71.394056-11.999001-50.595787-45.196237-95.592041-70.394139-117.990176-4.599617-0.199983-4.19965 3.799684 5.199567 12.998918 23.198068 21.398218 74.193822 98.391808 46.596121 169.785863-7.799351-1.999833-15.198735-2.99975-21.798185-2.799767-10.599117-58.195155-34.997086-106.391142-47.196071-129.189243-22.998085-42.796437-58.995088-130.589127-74.393806-191.384065-8.999251 12.798934-24.797935 23.798019-44.596286 29.997502-9.399217 2.99975-19.398385 10.999084-31.797353 17.998502-27.797686 15.998668-59.995005 17.598535-84.79294-2.3998-8.999251-7.199401-15.998668-15.198735-25.197902-20.598285-3.199734-1.79985-10.199151-6.599451-12.398968-8.199318-3.999667 75.593706-54.595454 170.585797-78.593456 225.381235-16.598618 39.39672-26.397802 81.593206-27.597702 122.989759-43.59637-58.195155-11.799018-132.58896 5.199567-164.786279 18.998418-35.197069 21.998168-44.996254 17.398552-41.596537-17.198568 27.997669-43.996337 72.593956-54.395471 118.390143-5.39955 23.798019-6.399467 47.996004 0.59995 70.394139 6.999417 22.398135 22.198152 42.99642 49.195904 59.795021 0 0 49.595871 28.597619 76.593622 64.994588 14.798768 19.998335 19.398385 37.396886 14.798768 49.795854-4.999584 13.398884-19.198402 17.798518-33.397219 17.798518 9.599201 11.999001 20.598285 25.997835 28.797602 39.196737 75.193739 51.395721 164.386313 31.397386 228.580968-14.398801zM893.968197 816.932561c-19.998335-22.598118-14.398801-66.194489-34.197153-83.193073-13.798851-11.999001-27.197735-10.799101-45.196237-10.199151-15.398718 17.598535-51.595704 39.196736-76.793606 32.597286-22.998085-5.799517-35.997003-32.597286-37.59687-58.995088-0.59995 0.399967-1.399883 0.59995-1.999833 0.999916-14.198818 7.799351-22.198152 21.598202-27.397719 42.196487-4.999584 20.398302-6.799434 46.996087-8.399301 77.393556-1.399883 23.598035-12.398968 52.795604-19.798351 81.19324-6.999417 26.397802-11.599034 50.395804-2.199817 72.593956 14.398801 28.997586 38.996753 40.796603 67.394389 38.596786 28.397636-2.199817 60.794938-19.598368 87.19274-50.995754 43.996337-53.195571 124.589626-59.395055 126.389476-92.992257 0.59995-10.199151-6.199484-25.997835-27.397718-49.195904zM410.608442 297.37582c3.999667 3.799684 9.399217 8.999251 15.998668 14.198818 13.198901 10.399134 31.597369 21.198235 54.595454 21.198235 23.198068 0 44.996254-11.799018 63.594705-21.598202 9.799184-5.199567 21.798185-13.998834 29.597536-20.798268 7.799351-6.799434 11.799018-12.598951 6.199484-13.198901-5.599534-0.59995-5.199567 5.199567-11.999001 10.199151-8.799267 6.399467-19.398385 14.798768-27.797686 19.598368-14.798768 8.399301-38.996753 20.398302-59.795021 20.398301-20.798268 0-37.396886-9.599201-49.795854-19.398385-6.199484-4.999584-11.399051-9.999167-15.398718-13.798851-2.99975-2.799767-3.799684-9.199234-8.599284-9.799184-2.799767-0.199983-3.5997 7.399384 3.399717 12.998918z" fill="" p-id="4902"></path></svg>