<?xml version="1.0" standalone="no"?><!DOCTYPE svg PUBLIC "-//W3C//DTD SVG 1.1//EN" "http://www.w3.org/Graphics/SVG/1.1/DTD/svg11.dtd"><svg t="1540868719574" class="icon" style="" viewBox="0 0 1024 1024" version="1.1" xmlns="http://www.w3.org/2000/svg" p-id="2595" xmlns:xlink="http://www.w3.org/1999/xlink" width="500" height="500"><defs><style type="text/css"></style></defs><path d="M840.533333 968.96H183.466667a42.666667 42.666667 0 0 1-42.666667-42.666667V410.026667a371.2 371.2 0 0 1 742.4 0v516.266666a42.666667 42.666667 0 0 1-42.666667 42.666667z m-614.4-85.333333h571.733334V410.026667a285.866667 285.866667 0 0 0-571.733334 0z" p-id="2596"></path><path d="M981.333333 974.933333H42.666667a42.666667 42.666667 0 0 1 0-85.333333h938.666666a42.666667 42.666667 0 0 1 0 85.333333zM476.586667 804.266667a42.666667 42.666667 0 0 1-23.893334-7.253334 42.666667 42.666667 0 0 1-11.946666-59.306666l98.133333-146.773334H405.333333a42.666667 42.666667 0 0 1-37.546666-22.613333 42.666667 42.666667 0 0 1 2.133333-42.666667l142.08-213.333333a42.666667 42.666667 0 0 1 71.253333 46.08l-98.133333 147.2h133.546667a42.666667 42.666667 0 0 1 37.546666 22.186667 42.666667 42.666667 0 0 1-2.133333 42.666666L512 785.066667a42.666667 42.666667 0 0 1-35.413333 19.2z" p-id="2597"></path></svg>