<?xml version="1.0" standalone="no"?><!DOCTYPE svg PUBLIC "-//W3C//DTD SVG 1.1//EN" "http://www.w3.org/Graphics/SVG/1.1/DTD/svg11.dtd"><svg t="1540869246749" class="icon" style="" viewBox="0 0 1024 1024" version="1.1" xmlns="http://www.w3.org/2000/svg" p-id="6268" xmlns:xlink="http://www.w3.org/1999/xlink" width="500" height="500"><defs><style type="text/css"></style></defs><path d="M150.528 431.104q37.888 0 58.368 24.064t20.48 51.712l0 11.264q0 34.816-17.92 58.88t-59.904 24.064l-7.168 0q-38.912 0-61.952-21.504t-23.04-59.392l0-14.336q0-13.312 5.632-26.624t15.872-24.064 25.6-17.408 33.792-6.656l10.24 0zM519.168 431.104q37.888 0 58.368 24.064t20.48 51.712l0 11.264q0 34.816-17.92 58.88t-59.904 24.064l-7.168 0q-38.912 0-61.952-21.504t-23.04-59.392l0-14.336q0-13.312 5.632-26.624t15.872-24.064 25.6-17.408 33.792-6.656l10.24 0zM887.808 431.104q37.888 0 58.368 24.064t20.48 51.712l0 11.264q0 34.816-17.92 58.88t-59.904 24.064l-7.168 0q-38.912 0-61.952-21.504t-23.04-59.392l0-14.336q0-13.312 5.632-26.624t15.872-24.064 25.6-17.408 33.792-6.656l10.24 0z" p-id="6269"></path></svg>