<?xml version="1.0" standalone="no"?><!DOCTYPE svg PUBLIC "-//W3C//DTD SVG 1.1//EN" "http://www.w3.org/Graphics/SVG/1.1/DTD/svg11.dtd"><svg t="1535365788697" class="icon" style="" viewBox="0 0 1024 1024" version="1.1" xmlns="http://www.w3.org/2000/svg" p-id="10214" xmlns:xlink="http://www.w3.org/1999/xlink" width="400" height="400"><defs><style type="text/css"></style></defs><path d="M606.523077 354.461538 606.523077 354.461538l86.646154 0L512 527.753846 417.476923 425.353846l0 0c-15.753846-15.753846-31.507692-15.753846-47.261538 0L204.8 590.769231C189.046154 606.523077 189.046154 630.153846 204.8 638.030769c15.753846 15.753846 31.507692 15.753846 47.261538 0l141.784615-141.784615 102.4 102.4c15.753846 15.753846 31.507692 15.753846 47.261538 0l196.923077-196.923077 0 86.646154c0 15.753846 15.753846 31.507692 31.507692 31.507692 15.753846 0 31.507692-15.753846 31.507692-31.507692L803.446154 322.953846l0 0c0-15.753846-15.753846-31.507692-31.507692-31.507692l0 0 0 0 0 0 0 0 0 0 0 0L606.523077 291.446154C582.892308 283.569231 567.138462 299.323077 567.138462 315.076923 567.138462 338.707692 582.892308 354.461538 606.523077 354.461538" p-id="10215"></path><path d="M512 56.073925c-228.430769 0-417.476923 189.046154-417.476923 425.353846 0 236.307692 189.046154 425.353846 417.476923 425.353846s417.476923-189.046154 417.476923-425.353846C929.476923 245.120079 740.430769 56.073925 512 56.073925M512 961.920079c-259.938462 0-472.615385-212.676923-472.615385-480.492308C39.384615 221.48931 252.061538 0.935463 512 0.935463c259.938462 0 472.615385 212.676923 472.615385 480.492308C984.615385 749.243156 771.938462 961.920079 512 961.920079" p-id="10216"></path></svg>