<?xml version="1.0" standalone="no"?><!DOCTYPE svg PUBLIC "-//W3C//DTD SVG 1.1//EN" "http://www.w3.org/Graphics/SVG/1.1/DTD/svg11.dtd"><svg t="1535364253332" class="icon" style="" viewBox="0 0 1024 1024" version="1.1" xmlns="http://www.w3.org/2000/svg" p-id="4455" xmlns:xlink="http://www.w3.org/1999/xlink" width="400" height="400"><defs><style type="text/css"></style></defs><path d="M959.360817 511.710404c0 126.845966-45.518706 233.54508-136.545886 320.099389l2.238994 0-20.145829 17.907858c-1.49198 0-2.237971 0.74599-2.237971 2.237971-1.493004 0-5.596462 2.984984-12.311397 8.953929-6.714935 5.968945-12.311397 10.446933-16.788361 13.430894l-2.238994 2.237971c-2.984984 1.489934-7.834432 4.479011-14.549368 8.959046-6.715959 4.469801-12.311397 8.203846-16.788361 11.183713l-2.238994 0c-34.323737 20.896936-70.13843 36.569894-107.445104 47.00864-4.476965 0-10.819416 1.12666-19.027355 3.361561s-14.549368 4.106528-19.027355 5.596462l-2.238994 0c-17.907858 2.979868-29.845749 4.479011-35.814694 4.479011l-4.475941 0c-8.953929 1.489934-21.63781 2.234901-38.053688 2.234901-16.414855 0-29.099758-0.744967-38.053688-2.234901l-4.475941 0c-5.968945 0-17.907858-1.499144-35.814694-4.479011l-2.238994 0c-4.475941-1.489934-10.819416-3.361561-19.027355-5.596462s-14.549368-3.361561-19.027355-3.361561c-37.306674-10.438747-73.122391-26.111704-107.445104-47.00864l-2.237971 0c-4.476965-2.979868-9.700943-6.713912-15.669888-11.183713-5.968945-4.479011-11.1919-7.469112-15.668865-8.959046 0-1.49198-1.49198-2.237971-4.475941-2.237971-2.984984-1.493004-7.461949-4.849448-13.430894-10.073426s-10.44591-9.327436-13.429871-12.311397l-2.238994-2.237971-20.145829-17.907858C108.750843 745.256508 63.981197 638.556371 63.981197 511.710404c0-122.369002 44.022633-227.575112 132.067898-315.620377C284.096407 108.043738 389.302517 64.021106 511.671519 64.021106s227.575112 44.022633 315.621401 132.068921C915.342278 284.135292 959.360817 389.342426 959.360817 511.710404zM789.239232 816.139905c89.538269-82.07632 134.306892-183.552479 134.306892-304.429501 0-113.415073-40.291658-210.413244-120.875998-290.997584S625.086591 99.835799 511.671519 99.835799s-210.413244 40.292682-290.997584 120.877021S99.796914 398.296355 99.796914 511.710404c0 120.877021 44.768623 222.353181 134.306892 304.429501l11.192923-6.714935c11.93789-5.968945 29.099758-12.68388 51.484581-20.145829 13.430894-5.968945 35.069727-11.938913 64.915475-17.907858l17.907858-4.475941c2.984984 0 6.714935 0 11.192923 0l6.714935-2.238994c4.475941-4.475941 8.207939-23.876804 11.192923-58.199517 2.984984-20.891819 2.984984-37.307697 0-49.246611l-26.861788-22.3838 0-2.238994c-4.476965-10.446933-8.207939-38.053688-11.192923-82.823334l-24.622794-11.192923-15.669888-73.868381 0-26.861788 15.669888-17.907858-8.953929-85.061304c0-17.907858 2.984984-44.768623 8.953929-80.58434l2.237971-4.475941 2.238994-4.476965c38.799678-31.337729 64.169485-49.992601 76.107375-55.961546 26.861788-11.93789 52.975539-17.907858 78.345346-17.907858l6.714935 0 6.714935 0 11.192923 0c5.968945 0 15.668865 1.493004 29.099758 4.476965 13.429871 2.984984 26.115797 7.460925 38.053688 13.429871s37.306674 24.623817 76.106352 55.961546l2.238994 4.476965 2.238994 4.475941c5.968945 35.814694 8.953929 62.676481 8.953929 80.58434 0 7.461949-0.373507 15.668865-1.119497 24.622794-0.747014 8.953929-1.493004 16.789385-2.238994 23.50432s-1.493004 12.68388-2.238994 17.907858c-0.74599 5.222955-1.865487 9.326413-3.357468 12.310374l0 6.715959 15.668865 17.907858 0 31.337729-15.668865 69.391417-24.623817 11.192923-11.1919 82.823334 0 2.238994c-1.493004 2.984984-4.476965 6.341429-8.953929 10.073426-4.476965 3.730974-8.953929 7.087419-13.430894 10.072403l-4.475941 2.238994 0 49.246611c2.984984 34.322713 6.714935 53.722552 11.1919 58.199517l17.907858 2.238994 17.907858 4.475941c26.861788 5.968945 48.500621 11.938913 64.915475 17.907858 26.861788 10.446933 44.022633 17.161868 51.483558 20.145829L789.239232 816.139905z" p-id="4456"></path></svg>