<?xml version="1.0" standalone="no"?><!DOCTYPE svg PUBLIC "-//W3C//DTD SVG 1.1//EN" "http://www.w3.org/Graphics/SVG/1.1/DTD/svg11.dtd"><svg t="1535364480109" class="icon" style="" viewBox="0 0 1024 1024" version="1.1" xmlns="http://www.w3.org/2000/svg" p-id="5571" xmlns:xlink="http://www.w3.org/1999/xlink" width="400" height="400"><defs><style type="text/css"></style></defs><path d="M776.68864 226.46784c-24.54528-141.58336-158.12096-236.032-298.28608-211.13344-139.9808 24.90368-258.26304 133.93408-233.53856 275.33824 5.33504 30.592 20.096 78.26432 37.5296 112.59392L28.04224 770.20672c-9.42592 13.5168-14.76608 37.888-11.91936 54.25152l11.02848 62.78656c-10.496-60.47232 2.84672 21.87776 11.02336 21.51936l83.77344 1.24416c16.18944-2.8416 36.46464-16.54272 45.35808-30.4128l100.67456-157.4144 0.88576-1.07008 87.86944 6.9376 117.57056-184.27392s26.16832-53.53984 123.07456-105.05728c88.69376-41.06752 163.04128-32.49152 163.04128-32.49152 21.57056-53.99552 27.20256-117.66784 16.26624-179.75808zM96.86528 795.38176l-22.00064 13.8496 5.12512-24.8832 238.70464-341.62688 16.50688 11.56096-238.336 341.09952zM652.71296 298.8544c-38.59456 55.49568-77.90592 16.36864-132.864-22.58944-54.9632-38.95296-104.94464-62.78144-66.34496-118.45632 38.59456-55.49056 114.36544-69.18656 169.32864-30.23872 54.95808 39.13216 68.47488 115.79392 29.88032 171.28448z" fill="#515151" p-id="5572"></path><path d="M744.832 473.94816c-148.29056 0-268.44672 120.15616-268.44672 268.4416 0 148.29056 120.15616 268.44672 268.44672 268.44672 148.28544 0 268.4416-120.15616 268.4416-268.4416 0-148.29056-120.15616-268.44672-268.4416-268.44672z m155.12576 378.63424c0 40.05376-76.77952 49.23392-148.87424 49.23392-72.09472 0-149.85216-9.18528-149.85216-49.23392v-11.136c0-29.50144 53.14048-59.392 98.2784-75.60704 3.31776-1.17248 18.944-9.76896 10.15296-32.62464-22.46656-22.8608-39.26528-59.98592-39.26528-96.51712 0-55.87456 36.92544-85.17632 80.29696-85.17632 43.18208 0 80.49152 29.30688 80.49152 85.17632 0 36.34176-16.9984 73.2672-39.2704 96.32256h0.19456c-8.59136 25.984 5.07904 32.2304 7.22432 32.8192 47.48288 15.62624 100.81792 45.32736 100.81792 75.60704l-0.19456 11.136z m0 0" fill="#515151" p-id="5573"></path></svg>