<?xml version="1.0" standalone="no"?><!DOCTYPE svg PUBLIC "-//W3C//DTD SVG 1.1//EN" "http://www.w3.org/Graphics/SVG/1.1/DTD/svg11.dtd"><svg t="1545122932557" class="icon" style="" viewBox="0 0 1025 1024" version="1.1" xmlns="http://www.w3.org/2000/svg" p-id="3737" xmlns:xlink="http://www.w3.org/1999/xlink" width="200.1953125" height="200"><defs><style type="text/css"></style></defs><path d="M661.184 104.224H280.8a24.736 24.736 0 0 0-25.408 25.376v279.136c0 13.952 10.72 25.408 25.408 25.408h380.352a25.664 25.664 0 0 0 25.408-25.408V129.6a25.28 25.28 0 0 0-25.376-25.376z m8.256 255.488c0 2.24 0 2.72-1.28 3.52L589.824 285.12s-24.128-23.936-47.552 13.632c-22.112 38.816-40.256 39.36-62.112 13.184L385.6 232.64s-22.144-29.12-47.552 0l-63.68 61.664V144c0-10.912 10.688-19.904 22.848-19.904h348.256c13.472 0 24.192 9.216 24.192 19.904l-0.224 215.712z" p-id="3738"></path><path d="M552.448 186.048a27.392 27.392 0 1 0 54.752 0 27.392 27.392 0 0 0-54.752 0M748.288 465.344c-153.152 0-277.28 124.096-277.28 277.248a277.28 277.28 0 1 0 277.28-277.248z m232.096 179.232c4.064 9.632 7.584 19.616 10.368 29.76l-229.568 229.504v-45.44l217.568-217.568 1.632 3.744z m19.328 82.688l-238.496 238.496v-44l233.184-233.12c2.752 12.672 4.512 25.536 5.312 38.624z m-238.496 113.248v-46.688l194.336-194.432c6.464 9.376 12.352 19.136 17.472 29.248l-211.808 211.872z m0-173.152l131.36-131.328c9.12 6.4 17.824 13.376 26.016 20.864l-157.376 157.44v-46.976z m0-17.856v-40.736l94.208-94.24c9.024 4.288 17.92 9.056 26.368 14.432l-120.576 120.544z m0-58.688v-45.088l47.776-47.712c11.52 2.816 22.88 6.528 33.952 11.008l-81.728 81.792z m0-62.976v-36.832c11.168 0.544 22.144 1.856 32.928 3.808l-32.928 33.024z m0 455.84l238.976-238.944a251.584 251.584 0 0 1-6.048 52.928L803.36 988.48a258.656 258.656 0 0 1-42.112 5.632v-10.432h-0.032z m186.816-394.624l-186.784 186.752v-43.552l166.464-166.432c7.2 7.296 13.984 15.04 20.32 23.232z m-377.92 331.616a251.168 251.168 0 0 1-73.728-178.112 250.88 250.88 0 0 1 73.728-178.048 251.008 251.008 0 0 1 165.792-73.568v503.2a251.264 251.264 0 0 1-85.696-19.424 252.256 252.256 0 0 1-80.096-54.048z m356.288 0a250.944 250.944 0 0 1-98.176 60.864l159.008-159.072a252.576 252.576 0 0 1-60.832 98.208z" p-id="3739"></path><path d="M470.24 962.752H56.512V61.248h810.24v401.408h56.448V4.128H0.032v1015.68H470.24v-57.056z" p-id="3740"></path><path d="M94.304 620.128h238.368v58.176H94.304v-58.176zM94.304 735.552h294.592v58.272H94.304v-58.272zM94.304 504.736h334.4v58.144H94.304v-58.144zM94.304 851.072h129.28v58.112h-129.28v-58.112z" p-id="3741"></path></svg>