<?xml version="1.0" standalone="no"?><!DOCTYPE svg PUBLIC "-//W3C//DTD SVG 1.1//EN" "http://www.w3.org/Graphics/SVG/1.1/DTD/svg11.dtd"><svg t="1545122453279" class="icon" style="" viewBox="0 0 1024 1024" version="1.1" xmlns="http://www.w3.org/2000/svg" p-id="790" xmlns:xlink="http://www.w3.org/1999/xlink" width="200" height="200"><defs><style type="text/css"></style></defs><path d="M655.568297 227.607105h37.94785V94.853625h-94.837627a94.773634 94.773634 0 0 0-189.611262 0H314.261628V227.607105h341.306669z m-303.390816-94.837627h94.80563V94.853625a56.953771 56.953771 0 0 1 113.811552 0v37.915853h94.773634v56.921775h-303.390816V132.769478zM162.566219 948.136298h682.613339v18.973924H162.566219v-18.973924z" p-id="791"></path><path d="M731.432 132.769478v37.94785h132.721483v815.334823H143.592295V170.717328h132.75348V132.769478H105.708438V1024h796.360898V132.769478h-170.637336z" p-id="792"></path><path d="M503.904885 398.244442a170.573344 170.573344 0 0 1 166.381802 132.721484h-52.634243v37.947849h94.837627l51.802335-94.805631-32.82841-18.941928-28.924836 50.01053a208.617182 208.617182 0 0 0-198.634275-144.81616 208.553189 208.553189 0 0 0-208.617182 208.585186h37.947849a170.669333 170.669333 0 0 1 170.669333-170.70133zM271.258331 724.352774l32.956396-57.081757a208.617182 208.617182 0 0 0 408.275344-60.441389H674.542222a170.669333 170.669333 0 0 1-337.083132 37.947849h52.634244v-37.947849H295.287703l-56.857781 98.549221 32.828409 18.973925z" p-id="793"></path><path d="M564.410268 574.35318a60.665365 60.665365 0 0 0-56.473824-56.473823v-15.326324h-8.095114v15.326324a60.665365 60.665365 0 0 0-56.441827 56.473823h-15.326324v8.095115h15.326324a60.633368 60.633368 0 0 0 56.441827 56.441826v15.326324h8.095114v-15.326324a60.665365 60.665365 0 0 0 56.473824-56.441826h15.26233v-8.095115h-15.26233z m-5.087444 8.095115a55.513928 55.513928 0 0 1-51.38638 51.322386v-9.918915h-8.095114v9.918915a55.545925 55.545925 0 0 1-51.38638-51.322386h9.950912v-8.095115h-9.950912a55.513928 55.513928 0 0 1 51.38638-51.386379v9.950911h8.095114v-9.950911a55.545925 55.545925 0 0 1 51.38638 51.386379h-9.982908v8.095115h9.982908z" p-id="794"></path><path d="M503.872889 477.275798a101.108941 101.108941 0 1 0 0.095989 202.217882 101.108941 101.108941 0 0 0-0.095989-202.217882z m0 192.042995a90.934054 90.934054 0 1 1 0-181.900104 90.934054 90.934054 0 1 1 0 181.900104z" p-id="795"></path><path d="M483.651101 578.384739a20.189792 20.189792 0 1 0 40.379583 0 20.189792 20.189792 0 0 0-40.379583 0" p-id="796"></path></svg>