<?xml version="1.0" standalone="no"?><!DOCTYPE svg PUBLIC "-//W3C//DTD SVG 1.1//EN" "http://www.w3.org/Graphics/SVG/1.1/DTD/svg11.dtd"><svg t="1545122769315" class="icon" style="" viewBox="0 0 1024 1024" version="1.1" xmlns="http://www.w3.org/2000/svg" p-id="2123" xmlns:xlink="http://www.w3.org/1999/xlink" width="200" height="200"><defs><style type="text/css"></style></defs><path d="M369.248 286.4h342.56v57.12H369.248V286.4zM369.248 514.848h171.296v57.088h-171.296v-57.088zM369.248 743.296h57.056v57.152h-57.056v-57.152zM597.632 57.92h-114.176V0.864h-114.208V57.92H254.976v114.272h342.656V57.92zM180.736 326.368l39.968 40 39.968-40 80-79.936-40-39.968L220.704 286.4 180.736 246.432 140.736 286.4l40 39.968zM220.704 514.848l-39.968-40.032-40 40.032 40 39.968 39.968 40 39.968-40 80-80-40-39.968-79.968 80zM300.672 663.296l-79.968 80-39.968-39.968-40 39.968 40 39.936 39.968 40 39.968-40 80-79.904-40-40.032z" p-id="2124"></path><path d="M740.448 566.24c108.48 0 199.904 91.36 199.904 199.904s-91.424 199.808-199.904 199.808c-108.448 0-199.872-91.36-199.872-199.808 0-108.512 91.328-199.904 199.872-199.904z m0-57.152a256 256 0 0 0-256.992 257.056c0 142.848 114.176 256.992 256.992 256.992s256.992-114.144 256.992-256.992a255.968 255.968 0 0 0-256.992-257.056z" p-id="2125"></path><path d="M768.992 737.568V623.36h-57.184v171.296H883.2V737.6h-114.208v-0.032z m0-279.84h57.056V57.92h-171.296v57.152h114.208v342.656h0.032zM426.304 914.592H83.616V115.04h114.24V57.92H26.592v913.824h399.712v-57.152z" p-id="2126"></path></svg>