<?xml version="1.0" standalone="no"?><!DOCTYPE svg PUBLIC "-//W3C//DTD SVG 1.1//EN" "http://www.w3.org/Graphics/SVG/1.1/DTD/svg11.dtd"><svg t="1541260207732" class="icon" style="" viewBox="0 0 1024 1024" version="1.1" xmlns="http://www.w3.org/2000/svg" p-id="14391" xmlns:xlink="http://www.w3.org/1999/xlink" width="500" height="500"><defs><style type="text/css"></style></defs><path d="M661.333333 219.733333H362.666667c-23.466667 0-42.666667-19.2-42.666667-42.666666v-42.666667c0-23.466667 19.2-42.666667 42.666667-42.666667h74.666666V64c0-34.133333 27.733333-61.866667 64-61.866667h21.333334c34.133333 0 64 27.733333 64 61.866667v32H661.333333c23.466667 0 42.666667 19.2 42.666667 42.666667v42.666666c0 19.2-19.2 38.4-42.666667 38.4zM362.666667 136.533333v40.533334h298.666666V136.533333h-117.333333V64c0-10.666667-10.666667-21.333333-21.333333-21.333333h-21.333334c-12.8 0-21.333333 8.533333-21.333333 21.333333v72.533333H362.666667z" p-id="14392"></path><path d="M896 1024H128c-36.266667 0-64-32-64-70.4V189.866667c0-38.4 29.866667-70.4 64-70.4h211.2v44.8H128c-10.666667 0-21.333333 12.8-21.333333 25.6v765.866666c0 12.8 10.666667 25.6 21.333333 25.6h768c10.666667 0 21.333333-12.8 21.333333-25.6V189.866667c0-14.933333-8.533333-25.6-21.333333-25.6h-209.066667V119.466667H896c36.266667 0 64 32 64 70.4v765.866666c0 38.4-27.733333 68.266667-64 68.266667z" p-id="14393"></path><path d="M750.933333 439.466667h-384c-10.666667 0-21.333333-8.533333-21.333333-21.333334 0-10.666667 8.533333-21.333333 21.333333-21.333333h384c10.666667 0 21.333333 8.533333 21.333334 21.333333s-10.666667 21.333333-21.333334 21.333334zM273.066667 439.466667c-12.8 0-21.333333-8.533333-21.333334-21.333334 0-10.666667 8.533333-21.333333 21.333334-21.333333 10.666667 0 21.333333 8.533333 21.333333 21.333333s-8.533333 21.333333-21.333333 21.333334zM750.933333 616.533333h-384c-10.666667 0-21.333333-8.533333-21.333333-21.333333 0-10.666667 8.533333-21.333333 21.333333-21.333333h384c10.666667 0 21.333333 8.533333 21.333334 21.333333s-10.666667 21.333333-21.333334 21.333333zM273.066667 616.533333c-12.8 0-21.333333-8.533333-21.333334-21.333333 0-10.666667 8.533333-21.333333 21.333334-21.333333 10.666667 0 21.333333 8.533333 21.333333 21.333333s-8.533333 21.333333-21.333333 21.333333zM750.933333 793.6h-384c-10.666667 0-21.333333-8.533333-21.333333-21.333333 0-10.666667 8.533333-21.333333 21.333333-21.333334h384c10.666667 0 21.333333 8.533333 21.333334 21.333334s-10.666667 21.333333-21.333334 21.333333zM273.066667 793.6c-12.8 0-21.333333-8.533333-21.333334-21.333333 0-10.666667 8.533333-21.333333 21.333334-21.333334 10.666667 0 21.333333 8.533333 21.333333 21.333334s-8.533333 21.333333-21.333333 21.333333z" p-id="14394"></path></svg>